<svg id="Capa_1" enable-background="new 0 0 512 512" height="512" viewBox="0 0 512 512" width="512" xmlns="http://www.w3.org/2000/svg"><g><path d="m305 482h-34.244l-63.333-57 103.333-93h19.244c8.284 0 15-6.716 15-15v-60c0-8.284-6.716-15-15-15h-10v-40h35c8.284 0 15-6.716 15-15s-6.716-15-15-15h-35v-142h5c8.284 0 15-6.716 15-15s-6.716-15-15-15h-40c-8.284 0-15 6.716-15 15s6.716 15 15 15h5v20h-210v-20h5c8.284 0 15-6.716 15-15s-6.716-15-15-15h-40c-8.284 0-15 6.716-15 15s6.716 15 15 15h5v142h-35c-8.284 0-15 6.716-15 15s6.716 15 15 15h35v40h-10c-8.284 0-15 6.716-15 15v60c0 8.284 6.716 15 15 15h19.244l103.333 93-63.333 57h-34.244c-8.284 0-15 6.716-15 15s6.716 15 15 15h40c3.706 0 7.28-1.372 10.035-3.851l69.965-62.968 69.965 62.969c2.755 2.479 6.329 3.85 10.035 3.85h40c8.284 0 15-6.716 15-15s-6.716-15-15-15zm-250-180v-30h260v30zm235-222v50h-210v-50zm-210 80h210v82h-210zm24.09 172h161.82l-80.91 72.82z"/><path d="m511.209 492.194-50.8-150.194h4.091c8.284 0 15-6.716 15-15s-6.716-15-15-15h-80c-8.284 0-15 6.716-15 15s6.716 15 15 15h4.091l-5.243 15.5h-34.89c-15.019 0-28.343 9.559-33.154 23.786l-11.839 35c-3.604 10.657-1.841 22.476 4.717 31.617s17.189 14.598 28.438 14.598h11.213l-10.044 29.694c-1.548 4.579-.796 9.623 2.021 13.55s7.357 6.255 12.19 6.255h145c4.833 0 9.371-2.329 12.188-6.256s3.57-8.971 2.021-13.55zm-174.588-59.694c-2.233 0-3.504-1.307-4.063-2.085-.559-.779-1.389-2.401-.674-4.517l11.839-35c.687-2.032 2.59-3.397 4.736-3.397h24.743l-15.221 45h-21.36zm36.287 49.5 47.353-140h8.477l47.353 140z"/></g></svg>